<svg version="1.1" xmlns="http://www.w3.org/2000/svg" xmlns:xlink="http://www.w3.org/1999/xlink" width="256.000000pt" height="256.000000pt" viewBox="0,0,256,256"><g fill="#ffffff" fill-rule="nonzero" stroke="none" stroke-width="1" stroke-linecap="butt" stroke-linejoin="miter" stroke-miterlimit="10" stroke-dasharray="" stroke-dashoffset="0" font-family="none" font-weight="none" font-size="none" text-anchor="none" style="mix-blend-mode: normal"><g transform="translate(-0.32699,0)"><g transform="translate(0,256) scale(0.1,-0.1)"><path d="M208,1583c3,-428 6,-581 15,-590c16,-15 1008,-593 1019,-593c4,0 8,263 8,584v584l-134,76c-74,42 -137,76 -140,76c-3,0 -7,-191 -8,-425l-3,-425l-238,136l-237,135l6,427l7,427l-145,83c-80,45 -147,82 -149,82c-2,0 -3,-260 -1,-577z"></path><path d="M1825,1862l-520,-298l-3,-577c-2,-459 0,-577 10,-577c7,0 105,53 218,118c314,182 783,454 803,466c15,9 17,28 17,149c0,115 -2,138 -14,134c-13,-5 -530,-307 -648,-378l-48,-29v64v64l355,208l355,208v143c0,79 -4,143 -9,143c-5,0 -169,-94 -365,-209l-356,-209v63v64l58,34c31,19 194,114 362,212c168,98 308,183 312,189c10,14 10,316 1,316c-5,0 -242,-135 -528,-298z"></path></g></g></g></svg>